<svg aria-hidden="true" style="position: absolute; width: 0; height: 0; overflow: hidden;" version="1.1" xmlns="http://www.w3.org/2000/svg" xmlns:xlink="http://www.w3.org/1999/xlink">
<defs>
<symbol id="icon-Instagram" viewBox="0 0 32 32">
<path d="M16.006 6.488c3.206 0 3.585 0.014 4.846 0.071 1.172 0.052 1.804 0.248 2.227 0.412 0.558 0.216 0.961 0.478 1.378 0.895 0.422 0.422 0.679 0.82 0.9 1.378 0.164 0.422 0.361 1.059 0.412 2.226 0.056 1.266 0.071 1.645 0.071 4.847s-0.014 3.585-0.071 4.847c-0.052 1.172-0.248 1.804-0.412 2.226-0.216 0.558-0.478 0.961-0.895 1.378-0.422 0.422-0.82 0.679-1.377 0.9-0.422 0.164-1.060 0.361-2.227 0.412-1.266 0.056-1.645 0.071-4.847 0.071s-3.585-0.014-4.847-0.071c-1.172-0.052-1.804-0.248-2.226-0.412-0.558-0.216-0.961-0.478-1.378-0.895-0.422-0.422-0.679-0.82-0.9-1.378-0.164-0.422-0.361-1.060-0.412-2.226-0.056-1.266-0.071-1.645-0.071-4.847s0.014-3.585 0.071-4.847c0.052-1.172 0.248-1.804 0.412-2.226 0.216-0.558 0.478-0.961 0.895-1.378 0.422-0.422 0.82-0.679 1.378-0.9 0.422-0.164 1.059-0.361 2.226-0.412 1.261-0.056 1.641-0.071 4.847-0.071h0.001zM16.006 4.328c-3.258 0-3.665 0.014-4.945 0.071-1.275 0.056-2.151 0.262-2.91 0.558-0.792 0.309-1.462 0.717-2.127 1.387-0.67 0.666-1.078 1.336-1.387 2.123-0.295 0.764-0.502 1.636-0.558 2.91-0.056 1.285-0.071 1.692-0.071 4.949s0.014 3.665 0.071 4.945c0.056 1.275 0.262 2.151 0.558 2.91 0.31 0.792 0.717 1.462 1.387 2.127 0.665 0.665 1.336 1.078 2.123 1.383 0.764 0.295 1.636 0.502 2.91 0.558 1.279 0.056 1.687 0.070 4.945 0.070s3.665-0.014 4.945-0.070c1.275-0.056 2.151-0.263 2.91-0.558 0.787-0.304 1.458-0.717 2.123-1.383s1.078-1.336 1.383-2.123c0.295-0.764 0.502-1.635 0.558-2.91 0.056-1.279 0.070-1.687 0.070-4.945s-0.014-3.665-0.070-4.945c-0.056-1.275-0.263-2.151-0.558-2.91-0.295-0.797-0.703-1.467-1.373-2.133-0.665-0.665-1.336-1.078-2.123-1.383-0.764-0.295-1.636-0.502-2.91-0.558-1.284-0.061-1.692-0.075-4.949-0.075l-0.001 0.001z"></path>
<path d="M16.006 10.163c-3.402 0-6.163 2.76-6.163 6.163s2.76 6.163 6.163 6.163 6.163-2.76 6.163-6.163c0-3.402-2.76-6.163-6.163-6.163zM16.006 20.324c-2.208 0-3.998-1.79-3.998-3.998s1.79-3.998 3.998-3.998 3.998 1.79 3.998 3.998c0 2.208-1.79 3.998-3.998 3.998z"></path>
<path d="M23.851 9.919c0 0.795-0.644 1.439-1.439 1.439s-1.439-0.644-1.439-1.439c0-0.795 0.644-1.439 1.439-1.439s1.439 0.644 1.439 1.439z"></path>
</symbol>
<symbol id="icon-Logo" viewBox="0 0 94 32">
<path d="M7.087 4.436c-0.147-0.147-0.385-0.147-0.532 0l-1.954 1.954-1.954-1.954c-0.147-0.147-0.385-0.147-0.532 0s-0.147 0.385 0 0.532l1.954 1.954-1.954 1.954c-0.147 0.147-0.147 0.385 0 0.532 0.073 0.073 0.17 0.11 0.266 0.11s0.192-0.037 0.266-0.11l1.954-1.954 1.954 1.954c0.073 0.073 0.17 0.11 0.266 0.11s0.192-0.037 0.266-0.11c0.147-0.147 0.147-0.385 0-0.532l-1.954-1.954 1.954-1.954c0.147-0.147 0.147-0.385 0-0.532z"></path>
<path d="M7.087 11.814c-0.147-0.147-0.385-0.147-0.532 0l-1.954 1.954-1.954-1.954c-0.147-0.147-0.385-0.147-0.532 0s-0.147 0.385 0 0.532l1.954 1.954-1.954 1.954c-0.147 0.147-0.147 0.385 0 0.532 0.073 0.073 0.17 0.11 0.266 0.11s0.192-0.037 0.266-0.11l1.954-1.954 1.954 1.954c0.073 0.073 0.17 0.11 0.266 0.11s0.192-0.037 0.266-0.11c0.147-0.147 0.147-0.385 0-0.532l-1.954-1.954 1.954-1.954c0.147-0.147 0.147-0.385-0-0.532z"></path>
<path d="M7.087 19.193c-0.147-0.147-0.385-0.147-0.532 0l-1.954 1.954-1.954-1.954c-0.147-0.147-0.385-0.147-0.532 0s-0.147 0.385 0 0.532l1.954 1.954-1.954 1.954c-0.147 0.147-0.147 0.385 0 0.532 0.073 0.073 0.17 0.11 0.266 0.11s0.192-0.037 0.266-0.11l1.954-1.954 1.954 1.954c0.073 0.073 0.17 0.11 0.266 0.11s0.192-0.037 0.266-0.11c0.147-0.147 0.147-0.385 0-0.532l-1.954-1.954 1.954-1.954c0.147-0.147 0.147-0.385-0-0.532z"></path>
<path d="M9.651 9.408c0.073 0.073 0.17 0.11 0.266 0.11s0.192-0.037 0.266-0.11l1.954-1.954 1.954 1.954c0.074 0.073 0.17 0.11 0.266 0.11s0.192-0.037 0.266-0.11c0.147-0.147 0.147-0.385 0-0.532l-1.954-1.954 1.954-1.954c0.147-0.147 0.147-0.385 0-0.532s-0.385-0.147-0.532 0l-1.954 1.954-1.954-1.954c-0.147-0.147-0.385-0.147-0.532 0s-0.147 0.385 0 0.532l1.954 1.954-1.954 1.954c-0.147 0.147-0.147 0.385-0 0.532z"></path>
<path d="M17.186 9.408c0.073 0.073 0.17 0.11 0.266 0.11s0.192-0.037 0.266-0.11l1.954-1.954 1.954 1.954c0.073 0.073 0.17 0.11 0.266 0.11s0.192-0.037 0.266-0.11c0.147-0.147 0.147-0.385 0-0.532l-1.954-1.954 1.954-1.954c0.147-0.147 0.147-0.385 0-0.532s-0.385-0.147-0.532 0l-1.954 1.954-1.954-1.954c-0.147-0.147-0.385-0.147-0.532 0s-0.147 0.385 0 0.532l1.954 1.954-1.954 1.954c-0.147 0.147-0.147 0.385-0 0.532z"></path>
<path d="M9.651 16.786c0.073 0.073 0.17 0.11 0.266 0.11s0.192-0.037 0.266-0.11l1.954-1.954 1.954 1.954c0.073 0.073 0.17 0.11 0.266 0.11s0.192-0.037 0.266-0.11c0.147-0.147 0.147-0.385 0-0.532l-1.954-1.954 1.954-1.954c0.147-0.147 0.147-0.385 0-0.532s-0.385-0.147-0.532 0l-1.954 1.954-1.954-1.954c-0.147-0.147-0.385-0.147-0.532 0s-0.147 0.385 0 0.532l1.954 1.954-1.954 1.954c-0.147 0.147-0.147 0.385-0 0.532z"></path>
<path d="M27.559 7.108c-0.138-0.138-0.358-0.147-0.507-0.023l-15.781 13.196-1.089-1.089c-0.147-0.147-0.385-0.147-0.532 0s-0.147 0.385 0 0.532l1.041 1.041-0.347 0.29c-0.498 0.416-0.8 1.027-0.829 1.676s0.218 1.284 0.677 1.743c0.435 0.435 1.028 0.679 1.64 0.679 0.034 0 0.068-0.001 0.102-0.002 0.649-0.029 1.259-0.331 1.676-0.829l0.29-0.347 0.781 0.781c0.45 0.45 1.041 0.675 1.632 0.675s1.182-0.225 1.631-0.675l1.973-1.973c0.294-0.294 0.684-0.456 1.1-0.456s0.806 0.162 1.1 0.456l0.562 0.562c0.147 0.147 0.385 0.147 0.532 0s0.147-0.385-0-0.532l-0.562-0.562c-0.9-0.9-2.363-0.9-3.263 0l-1.973 1.973c-0.607 0.606-1.593 0.606-2.2 0l-0.828-0.828 2.424-2.899c0.133-0.159 0.112-0.396-0.047-0.53s-0.396-0.112-0.53 0.047l-2.381 2.847-0.758-0.758 0.325-0.325c0.147-0.147 0.147-0.385 0-0.532s-0.385-0.147-0.532 0l-1.178 1.178c-0.147 0.147-0.147 0.385 0 0.532 0.073 0.073 0.17 0.11 0.266 0.11s0.192-0.037 0.266-0.11l0.321-0.321 0.805 0.805-0.333 0.399c-0.285 0.341-0.688 0.54-1.132 0.56s-0.863-0.143-1.178-0.457c-0.315-0.315-0.477-0.733-0.458-1.178s0.219-0.847 0.56-1.132l13.474-11.267-6.941 8.3c-0.133 0.159-0.112 0.396 0.047 0.53s0.396 0.112 0.53-0.047l9.644-11.533c0.125-0.149 0.115-0.369-0.023-0.507z"></path>
<path d="M24.456 24.057c-0.147-0.147-0.385-0.147-0.532 0s-0.147 0.385 0 0.532l2.976 2.976c0.073 0.073 0.17 0.11 0.266 0.11s0.192-0.037 0.266-0.11c0.147-0.147 0.147-0.385 0-0.532l-2.976-2.976z"></path>
<path d="M43.431 19.35c0-0.338-0.053-0.639-0.158-0.902-0.098-0.263-0.274-0.504-0.53-0.722s-0.617-0.429-1.083-0.632c-0.459-0.211-1.045-0.425-1.759-0.643-0.782-0.241-1.504-0.508-2.165-0.801-0.654-0.301-1.226-0.647-1.714-1.038-0.489-0.398-0.868-0.853-1.139-1.365-0.271-0.519-0.406-1.117-0.406-1.793 0-0.669 0.139-1.278 0.417-1.827 0.286-0.549 0.688-1.023 1.207-1.421 0.526-0.406 1.147-0.718 1.861-0.936 0.714-0.226 1.504-0.338 2.368-0.338 1.218 0 2.267 0.226 3.147 0.677 0.887 0.451 1.568 1.056 2.041 1.816 0.481 0.759 0.722 1.598 0.722 2.515h-2.808c0-0.541-0.116-1.019-0.35-1.432-0.226-0.421-0.571-0.752-1.038-0.992-0.459-0.241-1.041-0.361-1.748-0.361-0.669 0-1.226 0.102-1.669 0.304s-0.774 0.477-0.992 0.823-0.327 0.737-0.327 1.173c0 0.308 0.071 0.59 0.214 0.846 0.143 0.248 0.361 0.481 0.654 0.699 0.293 0.211 0.662 0.41 1.105 0.598s0.966 0.368 1.568 0.541c0.91 0.271 1.703 0.571 2.38 0.902 0.677 0.323 1.241 0.692 1.692 1.105s0.789 0.883 1.015 1.41c0.226 0.519 0.338 1.109 0.338 1.771 0 0.692-0.139 1.316-0.417 1.872-0.278 0.549-0.677 1.019-1.195 1.41-0.511 0.384-1.128 0.68-1.85 0.891-0.714 0.203-1.511 0.305-2.391 0.305-0.789 0-1.568-0.105-2.335-0.316-0.759-0.211-1.451-0.53-2.075-0.959-0.624-0.436-1.12-0.978-1.489-1.624-0.368-0.654-0.553-1.417-0.553-2.29h2.831c0 0.534 0.090 0.989 0.271 1.365 0.188 0.376 0.447 0.684 0.778 0.925 0.331 0.233 0.714 0.406 1.15 0.519 0.444 0.113 0.917 0.169 1.421 0.169 0.662 0 1.214-0.094 1.658-0.282 0.451-0.188 0.789-0.451 1.015-0.789s0.338-0.729 0.338-1.173zM54.1 11.376v1.985h-6.88v-1.985h6.88zM49.206 8.387h2.718v11.82c0 0.376 0.053 0.665 0.158 0.868 0.113 0.195 0.267 0.327 0.462 0.395s0.425 0.102 0.688 0.102c0.188 0 0.368-0.011 0.541-0.034s0.312-0.045 0.417-0.068l0.011 2.075c-0.226 0.068-0.489 0.128-0.789 0.18-0.293 0.053-0.632 0.079-1.015 0.079-0.624 0-1.177-0.109-1.658-0.327-0.481-0.226-0.857-0.59-1.128-1.094s-0.406-1.173-0.406-2.008v-11.989zM59.108 11.376v12.203h-2.729v-12.203h2.729zM56.198 8.173c0-0.414 0.135-0.756 0.406-1.026 0.278-0.278 0.662-0.417 1.15-0.417 0.481 0 0.861 0.139 1.139 0.417 0.278 0.271 0.417 0.613 0.417 1.026 0 0.406-0.139 0.744-0.417 1.015s-0.658 0.406-1.139 0.406c-0.489 0-0.872-0.135-1.15-0.406-0.271-0.271-0.406-0.609-0.406-1.015zM67.679 11.376v1.985h-6.88v-1.985h6.88zM62.785 8.387h2.718v11.82c0 0.376 0.053 0.665 0.158 0.868 0.113 0.195 0.267 0.327 0.462 0.395s0.425 0.102 0.688 0.102c0.188 0 0.368-0.011 0.541-0.034s0.312-0.045 0.417-0.068l0.011 2.075c-0.226 0.068-0.489 0.128-0.789 0.18-0.293 0.053-0.632 0.079-1.015 0.079-0.624 0-1.177-0.109-1.658-0.327-0.481-0.226-0.857-0.59-1.128-1.094s-0.406-1.173-0.406-2.008v-11.989zM74.762 21.639c0.444 0 0.842-0.086 1.195-0.259 0.361-0.18 0.65-0.429 0.868-0.744 0.226-0.316 0.35-0.68 0.372-1.094h2.56c-0.015 0.789-0.248 1.507-0.699 2.154s-1.049 1.162-1.793 1.545c-0.744 0.376-1.568 0.564-2.47 0.564-0.932 0-1.744-0.158-2.436-0.474-0.692-0.323-1.267-0.767-1.726-1.331s-0.804-1.214-1.038-1.951c-0.226-0.737-0.338-1.526-0.338-2.368v-0.395c0-0.842 0.113-1.632 0.338-2.368 0.233-0.744 0.579-1.398 1.038-1.962s1.034-1.004 1.726-1.319c0.692-0.323 1.5-0.485 2.425-0.485 0.977 0 1.835 0.195 2.571 0.586 0.737 0.383 1.316 0.921 1.737 1.613 0.429 0.684 0.65 1.481 0.665 2.391h-2.56c-0.023-0.451-0.135-0.857-0.338-1.218-0.196-0.368-0.474-0.662-0.835-0.88-0.353-0.218-0.778-0.327-1.274-0.327-0.549 0-1.004 0.113-1.365 0.338-0.361 0.218-0.643 0.519-0.846 0.902-0.203 0.376-0.35 0.801-0.44 1.274-0.083 0.466-0.124 0.951-0.124 1.455v0.395c0 0.504 0.041 0.992 0.124 1.466s0.226 0.899 0.429 1.274c0.211 0.368 0.496 0.665 0.857 0.891 0.361 0.218 0.82 0.327 1.376 0.327zM84.529 6.256v17.323h-2.707v-17.323h2.707zM84.055 17.026l-0.88-0.011c0.007-0.842 0.124-1.62 0.35-2.335 0.233-0.714 0.556-1.335 0.97-1.861 0.421-0.534 0.925-0.944 1.511-1.229 0.587-0.293 1.237-0.44 1.951-0.44 0.602 0 1.144 0.083 1.624 0.248 0.488 0.165 0.909 0.432 1.263 0.801 0.354 0.361 0.621 0.835 0.801 1.421 0.188 0.579 0.282 1.286 0.282 2.12v7.838h-2.729v-7.861c0-0.587-0.087-1.053-0.259-1.398-0.166-0.346-0.41-0.594-0.733-0.744-0.323-0.158-0.718-0.237-1.184-0.237-0.489 0-0.921 0.098-1.297 0.293-0.369 0.195-0.677 0.462-0.925 0.801s-0.435 0.729-0.563 1.173c-0.121 0.444-0.181 0.917-0.181 1.421z"></path>
</symbol>
<symbol id="icon-menu" viewBox="0 0 32 32">
<path d="M4.936 24.295c-0.321 0-0.59-0.11-0.808-0.329s-0.327-0.493-0.327-0.82c0-0.322 0.109-0.591 0.327-0.807s0.488-0.323 0.808-0.323h22.127c0.321 0 0.591 0.11 0.812 0.329s0.331 0.49 0.331 0.812c0 0.327-0.11 0.599-0.331 0.814s-0.492 0.323-0.812 0.323h-22.127zM4.936 17.136c-0.321 0-0.59-0.11-0.808-0.329s-0.327-0.49-0.327-0.812c0-0.322 0.109-0.591 0.327-0.806s0.488-0.323 0.808-0.323h22.127c0.321 0 0.591 0.11 0.812 0.329s0.331 0.49 0.331 0.812c0 0.322-0.11 0.591-0.331 0.806s-0.492 0.323-0.812 0.323h-22.127zM4.936 9.984c-0.321 0-0.59-0.11-0.808-0.329s-0.327-0.493-0.327-0.82c0-0.322 0.109-0.591 0.327-0.806s0.488-0.323 0.808-0.323h22.127c0.321 0 0.591 0.11 0.812 0.329s0.331 0.49 0.331 0.812c0 0.328-0.11 0.599-0.331 0.815s-0.492 0.323-0.812 0.323h-22.127z"></path>
</symbol>
<symbol id="icon-moon" viewBox="0 0 32 32">
<path d="M17.467 30.786h-3.93l0.376-0.357c0.251-0.238 0.527-0.495 0.828-0.771s0.577-0.533 0.827-0.771l0.376-0.357h1.367c2.145 0.021 4.14-0.59 5.985-1.834s3.303-2.792 4.375-4.644c-1.968-0.199-3.861-0.672-5.679-1.419s-3.422-1.813-4.812-3.197c-1.395-1.379-2.461-2.97-3.197-4.774s-1.206-3.679-1.411-5.625c-1.849 1.056-3.375 2.46-4.577 4.211s-1.814 3.69-1.836 5.816v0.383c0 0.141 0.011 0.266 0.033 0.376l-0.345 0.132c-0.23 0.088-0.486 0.179-0.766 0.275s-0.536 0.187-0.766 0.275l-0.345 0.132c-0.038-0.278-0.062-0.532-0.073-0.762s-0.017-0.454-0.017-0.674c0-3.061 0.892-5.758 2.675-8.091s4.111-3.944 6.983-4.831c0.199-0.050 0.386-0.062 0.56-0.037s0.325 0.097 0.452 0.216 0.235 0.26 0.323 0.421c0.088 0.162 0.124 0.346 0.107 0.553-0.112 1.985 0.139 3.862 0.753 5.632s1.632 3.363 3.055 4.781c1.469 1.473 3.059 2.496 4.769 3.068s3.585 0.819 5.626 0.74c0.2-0.012 0.385 0.031 0.553 0.128s0.313 0.21 0.435 0.34c0.122 0.13 0.188 0.286 0.199 0.469s-0.019 0.376-0.091 0.58c-0.995 2.917-2.575 5.249-4.739 6.996s-4.855 2.621-8.072 2.621zM8 28.507h6c0.703 0 1.301-0.243 1.793-0.73s0.738-1.082 0.738-1.785c0-0.703-0.241-1.303-0.722-1.797s-1.065-0.742-1.75-0.742h-1.386l-0.533-1.254c-0.361-0.833-0.913-1.498-1.658-1.994s-1.561-0.747-2.449-0.752c-1.246 0-2.318 0.444-3.216 1.332s-1.347 1.953-1.347 3.197c0 1.261 0.44 2.331 1.321 3.209s1.951 1.317 3.21 1.317zM8 30.786c-1.879 0-3.483-0.664-4.811-1.991s-1.992-2.932-1.992-4.814 0.664-3.488 1.992-4.816c1.328-1.328 2.931-1.992 4.811-1.992 1.345 0 2.576 0.363 3.691 1.087s1.947 1.699 2.497 2.921c1.283 0.066 2.372 0.559 3.269 1.481s1.345 2.029 1.345 3.321c0 1.324-0.47 2.455-1.409 3.394s-2.070 1.409-3.394 1.409h-6z"></path>
</symbol>
<symbol id="icon-pan_tool" viewBox="0 0 32 32">
<path d="M13.403 30.866c-0.613 0-1.2-0.143-1.76-0.429s-1.007-0.69-1.34-1.211l-8.068-12.069c-0.133-0.205-0.175-0.434-0.125-0.687s0.168-0.457 0.354-0.612c0.401-0.333 0.861-0.545 1.379-0.633s1.050 0.071 1.593 0.479l3.817 2.911v-13.727c0-0.303 0.105-0.559 0.315-0.767s0.467-0.313 0.772-0.313c0.305 0 0.56 0.104 0.765 0.313s0.307 0.464 0.307 0.767v15.536c0 0.481-0.209 0.822-0.626 1.024s-0.814 0.164-1.19-0.112l-3.833-2.804 6.331 9.479c0.151 0.229 0.337 0.402 0.557 0.519s0.469 0.176 0.748 0.176h9.728c0.825 0 1.517-0.281 2.078-0.842s0.842-1.254 0.842-2.078v-19.581c0-0.303 0.105-0.559 0.315-0.767s0.467-0.313 0.773-0.313c0.305 0 0.56 0.104 0.765 0.313s0.307 0.464 0.307 0.767v19.581c0 1.421-0.491 2.623-1.474 3.606s-2.185 1.474-3.606 1.474h-9.724zM15.944 1.094c0.305 0 0.561 0.104 0.767 0.312s0.309 0.464 0.309 0.767v12.826c0 0.303-0.105 0.559-0.315 0.767s-0.467 0.312-0.773 0.312c-0.305 0-0.559-0.104-0.761-0.312s-0.303-0.464-0.303-0.767v-12.826c0-0.303 0.103-0.559 0.309-0.767s0.462-0.312 0.767-0.312zM21.56 2.459c0.303 0 0.556 0.104 0.76 0.313s0.306 0.464 0.306 0.767v11.461c0 0.303-0.104 0.559-0.313 0.767s-0.465 0.312-0.768 0.312c-0.304 0-0.558-0.104-0.763-0.312s-0.307-0.464-0.307-0.767v-11.461c0-0.303 0.105-0.559 0.314-0.767s0.467-0.313 0.772-0.313z"></path>
</symbol>
<symbol id="icon-pattern" viewBox="0 0 32 32">
<path d="M7.446 26.85c-0.635 0-1.176-0.223-1.624-0.67s-0.672-0.985-0.672-1.616c0-0.633 0.224-1.174 0.672-1.623s0.989-0.674 1.624-0.674c0.123 0 0.241 0.008 0.353 0.025s0.229 0.047 0.352 0.091l5.678-5.678c-0.149-0.399-0.17-0.811-0.063-1.235s0.311-0.79 0.611-1.097c0.3-0.307 0.664-0.512 1.091-0.615s0.839-0.079 1.238 0.070l5.644-5.644c-0.022-0.128-0.042-0.252-0.058-0.374s-0.025-0.244-0.025-0.365c0-0.635 0.223-1.176 0.668-1.624s0.985-0.672 1.618-0.672c0.633 0 1.174 0.223 1.623 0.67s0.674 0.985 0.674 1.616c0 0.633-0.224 1.174-0.672 1.623s-0.989 0.674-1.624 0.674c-0.182 0-0.439-0.028-0.772-0.083l-5.611 5.611c0.127 0.421 0.145 0.845 0.053 1.272s-0.29 0.793-0.597 1.099c-0.32 0.326-0.694 0.529-1.12 0.609s-0.862 0.057-1.305-0.070l-5.383 5.383h4.108c0.184-0.399 0.463-0.713 0.836-0.943s0.779-0.345 1.215-0.345c0.457 0 0.872 0.115 1.246 0.345s0.655 0.544 0.841 0.943h4.425c0.212-0.402 0.501-0.717 0.865-0.945s0.764-0.343 1.197-0.343c0.635 0 1.176 0.223 1.624 0.668s0.672 0.985 0.672 1.618c0 0.633-0.224 1.174-0.672 1.623s-0.989 0.674-1.624 0.674c-0.444 0-0.853-0.115-1.226-0.344s-0.652-0.547-0.836-0.952h-4.418c-0.191 0.399-0.474 0.715-0.849 0.947s-0.783 0.349-1.225 0.349c-0.444 0-0.854-0.115-1.23-0.344s-0.656-0.547-0.841-0.952h-4.414c-0.188 0.404-0.469 0.721-0.843 0.951s-0.783 0.345-1.228 0.345zM7.447 18.288c-0.631 0-1.171-0.222-1.622-0.667s-0.676-0.982-0.676-1.614c0-0.631 0.223-1.172 0.669-1.621s0.984-0.674 1.614-0.674 1.171 0.223 1.622 0.668c0.452 0.445 0.678 0.983 0.678 1.614s-0.224 1.171-0.672 1.62c-0.448 0.449-0.986 0.674-1.614 0.674zM7.444 9.733c-0.63 0-1.17-0.223-1.619-0.668s-0.675-0.985-0.675-1.618c0-0.633 0.223-1.174 0.67-1.623s0.985-0.674 1.616-0.674c0.633 0 1.174 0.223 1.623 0.669s0.674 0.984 0.674 1.614c0 0.63-0.224 1.171-0.672 1.623s-0.987 0.678-1.617 0.678zM16.006 9.733c-0.631 0-1.171-0.224-1.62-0.672s-0.674-0.986-0.674-1.614c0-0.631 0.222-1.171 0.667-1.622s0.982-0.676 1.614-0.676c0.632 0 1.172 0.223 1.621 0.669s0.674 0.984 0.674 1.614-0.223 1.171-0.668 1.622c-0.445 0.452-0.983 0.678-1.614 0.678zM24.567 18.288c-0.63 0-1.171-0.223-1.622-0.668s-0.678-0.983-0.678-1.614 0.224-1.171 0.672-1.62c0.448-0.449 0.986-0.674 1.614-0.674 0.631 0 1.171 0.222 1.622 0.667s0.676 0.982 0.676 1.614c0 0.632-0.223 1.172-0.669 1.621s-0.984 0.674-1.614 0.674z"></path>
</symbol>
<symbol id="icon-fonicon" viewBox="0 0 32 32">
<path d="M7.947 3.984c-0.153-0.153-0.4-0.153-0.552 0l-2.031 2.031-2.031-2.031c-0.153-0.153-0.4-0.153-0.552 0s-0.153 0.4 0 0.552l2.031 2.031-2.031 2.031c-0.153 0.153-0.153 0.4 0 0.552 0.076 0.076 0.176 0.114 0.276 0.114s0.2-0.038 0.276-0.114l2.031-2.031 2.031 2.031c0.076 0.076 0.176 0.114 0.276 0.114s0.2-0.038 0.276-0.114c0.153-0.153 0.153-0.4 0-0.552l-2.031-2.031 2.031-2.031c0.153-0.152 0.153-0.4 0-0.552z"></path>
<path d="M7.947 11.651c-0.153-0.153-0.4-0.153-0.552 0l-2.031 2.031-2.031-2.031c-0.153-0.153-0.4-0.153-0.552 0s-0.153 0.4 0 0.552l2.031 2.031-2.031 2.031c-0.153 0.153-0.153 0.4 0 0.552 0.076 0.076 0.176 0.114 0.276 0.114s0.2-0.038 0.276-0.114l2.031-2.031 2.031 2.031c0.076 0.076 0.176 0.114 0.276 0.114s0.2-0.038 0.276-0.114c0.153-0.153 0.153-0.4 0-0.552l-2.031-2.031 2.031-2.031c0.152-0.152 0.152-0.4-0-0.552z"></path>
<path d="M7.947 19.317c-0.153-0.153-0.4-0.153-0.552 0l-2.031 2.031-2.031-2.031c-0.153-0.153-0.4-0.153-0.552 0s-0.153 0.4 0 0.552l2.031 2.031-2.031 2.031c-0.153 0.153-0.153 0.4 0 0.552 0.076 0.076 0.176 0.114 0.276 0.114s0.2-0.038 0.276-0.114l2.031-2.031 2.031 2.031c0.076 0.076 0.176 0.114 0.276 0.114s0.2-0.038 0.276-0.114c0.153-0.153 0.153-0.4 0-0.552l-2.031-2.031 2.031-2.031c0.152-0.153 0.152-0.4-0-0.552z"></path>
<path d="M10.611 9.15c0.076 0.076 0.176 0.114 0.276 0.114s0.2-0.038 0.276-0.114l2.031-2.031 2.031 2.031c0.076 0.076 0.176 0.114 0.276 0.114s0.2-0.038 0.276-0.114c0.153-0.153 0.153-0.4 0-0.552l-2.031-2.031 2.031-2.031c0.153-0.153 0.153-0.4 0-0.552s-0.4-0.153-0.552 0l-2.031 2.031-2.031-2.031c-0.153-0.153-0.4-0.153-0.552 0s-0.153 0.4 0 0.552l2.031 2.031-2.031 2.031c-0.153 0.152-0.153 0.4-0 0.552z"></path>
<path d="M18.441 9.15c0.076 0.076 0.176 0.114 0.276 0.114s0.2-0.038 0.276-0.114l2.031-2.031 2.031 2.031c0.076 0.076 0.176 0.114 0.276 0.114s0.2-0.038 0.276-0.114c0.153-0.153 0.153-0.4 0-0.552l-2.031-2.031 2.031-2.031c0.153-0.153 0.153-0.4 0-0.552s-0.4-0.153-0.552 0l-2.031 2.031-2.031-2.031c-0.153-0.153-0.4-0.153-0.553 0s-0.153 0.4 0 0.552l2.031 2.031-2.031 2.031c-0.153 0.152-0.153 0.4 0 0.552z"></path>
<path d="M10.611 16.817c0.076 0.076 0.176 0.114 0.276 0.114s0.2-0.038 0.276-0.114l2.031-2.031 2.031 2.031c0.076 0.076 0.176 0.114 0.276 0.114s0.2-0.038 0.276-0.114c0.153-0.153 0.153-0.4 0-0.552l-2.031-2.031 2.031-2.031c0.153-0.153 0.153-0.4 0-0.552s-0.4-0.153-0.553 0l-2.031 2.031-2.031-2.031c-0.153-0.153-0.4-0.153-0.552 0s-0.153 0.4 0 0.552l2.031 2.031-2.031 2.031c-0.153 0.153-0.153 0.4-0 0.552z"></path>
<path d="M29.219 6.761c-0.143-0.143-0.372-0.153-0.527-0.023l-16.398 13.711-1.131-1.131c-0.153-0.153-0.4-0.153-0.552 0s-0.153 0.4 0 0.552l1.082 1.082-0.361 0.301c-0.518 0.433-0.831 1.067-0.861 1.741s0.226 1.334 0.703 1.811c0.452 0.452 1.068 0.706 1.705 0.706 0.035 0 0.071-0.001 0.106-0.002 0.674-0.030 1.308-0.344 1.741-0.861l0.302-0.361 0.811 0.811c0.467 0.467 1.081 0.701 1.695 0.701s1.228-0.234 1.695-0.701l2.051-2.051c0.305-0.305 0.711-0.473 1.143-0.473s0.838 0.168 1.143 0.473l0.584 0.584c0.153 0.153 0.4 0.153 0.552 0s0.153-0.4-0-0.552l-0.584-0.584c-0.935-0.935-2.456-0.935-3.39 0l-2.051 2.051c-0.63 0.63-1.655 0.63-2.286 0l-0.86-0.86 2.519-3.012c0.138-0.166 0.116-0.412-0.049-0.55s-0.412-0.116-0.55 0.049l-2.474 2.958-0.787-0.787 0.338-0.338c0.153-0.153 0.153-0.4 0-0.552s-0.4-0.153-0.552 0l-1.224 1.224c-0.153 0.153-0.153 0.4 0 0.552 0.076 0.076 0.176 0.114 0.276 0.114s0.2-0.038 0.276-0.114l0.333-0.333 0.837 0.837-0.346 0.414c-0.297 0.355-0.714 0.561-1.176 0.582-0.461 0.020-0.897-0.148-1.224-0.475s-0.496-0.762-0.475-1.224c0.021-0.462 0.227-0.88 0.582-1.176l14.001-11.707-7.212 8.624c-0.138 0.166-0.116 0.412 0.049 0.55s0.412 0.116 0.55-0.049l10.020-11.983c0.13-0.155 0.12-0.384-0.023-0.527z"></path>
<path d="M25.994 24.371c-0.153-0.153-0.4-0.153-0.553 0s-0.153 0.4 0 0.552l3.092 3.092c0.076 0.076 0.176 0.114 0.276 0.114s0.2-0.038 0.276-0.114c0.153-0.153 0.153-0.4 0-0.552l-3.092-3.092z"></path>
</symbol>
<symbol id="icon-user" viewBox="0 0 32 32">
<path d="M18.869 8.579c-0.312 0-0.571-0.106-0.778-0.317s-0.31-0.473-0.31-0.783 0.103-0.57 0.31-0.779c0.207-0.208 0.466-0.313 0.778-0.313h9.6c0.31 0 0.57 0.106 0.78 0.317s0.315 0.474 0.315 0.786c0 0.311-0.105 0.57-0.315 0.777s-0.47 0.311-0.78 0.311h-9.6zM18.869 14c-0.312 0-0.571-0.106-0.778-0.317s-0.31-0.473-0.31-0.785c0-0.312 0.103-0.57 0.31-0.774s0.466-0.307 0.778-0.307h9.6c0.31 0 0.57 0.104 0.78 0.312s0.315 0.468 0.315 0.782c0 0.312-0.105 0.571-0.315 0.778s-0.47 0.311-0.78 0.311h-9.6zM18.869 19.421c-0.308 0-0.567-0.105-0.775-0.314s-0.313-0.469-0.313-0.778c0-0.309 0.104-0.567 0.313-0.774s0.467-0.31 0.775-0.31h9.6c0.31 0 0.57 0.105 0.78 0.314s0.315 0.468 0.315 0.778c0 0.309-0.105 0.567-0.315 0.774s-0.47 0.31-0.78 0.31h-9.6zM10.616 18.567c-1.185 0-2.165-0.39-2.942-1.171s-1.165-1.763-1.165-2.948c0-1.185 0.39-2.167 1.169-2.946s1.76-1.168 2.942-1.168c1.185 0 2.167 0.39 2.946 1.17s1.169 1.762 1.169 2.946c0 1.186-0.39 2.169-1.171 2.948s-1.763 1.169-2.948 1.169zM2.443 25.89v-1.24c0-0.449 0.108-0.878 0.323-1.284s0.503-0.696 0.864-0.867c1.011-0.722 2.118-1.257 3.322-1.607s2.426-0.525 3.665-0.525c1.239 0 2.455 0.192 3.649 0.575s2.31 0.902 3.348 1.557c0.339 0.238 0.621 0.543 0.848 0.915s0.34 0.784 0.34 1.237v1.24c0 0.326-0.109 0.598-0.328 0.816s-0.487 0.327-0.808 0.327h-14.088c-0.32 0-0.59-0.109-0.808-0.327s-0.327-0.49-0.327-0.816zM4.452 24.483v0.367h12.333v-0.367c-0.867-0.578-1.867-1.044-3-1.4s-2.189-0.533-3.167-0.533-2.039 0.178-3.183 0.533c-1.144 0.356-2.139 0.822-2.983 1.4zM10.619 16.383c0.578 0 1.044-0.179 1.4-0.537s0.533-0.823 0.533-1.396c0-0.578-0.178-1.044-0.533-1.4s-0.822-0.533-1.4-0.533c-0.578 0-1.044 0.178-1.4 0.533s-0.533 0.822-0.533 1.4c0 0.573 0.178 1.038 0.533 1.396s0.822 0.537 1.4 0.537z"></path>
</symbol>
<symbol id="icon-X" viewBox="0 0 32 32">
<path d="M22.901 5.657h3.68l-8.040 9.037 9.459 12.297h-7.406l-5.801-7.458-6.637 7.458h-3.682l8.6-9.666-9.074-11.668h7.594l5.243 6.817 6.064-6.817zM21.61 24.824h2.039l-13.163-17.115h-2.188l13.312 17.115z"></path>
</symbol>
<symbol id="icon-Youtube" viewBox="0 0 32 32">
<path d="M28.791 9.604c-0.152-0.563-0.449-1.077-0.861-1.49s-0.925-0.711-1.488-0.864c-2.088-0.573-10.441-0.583-10.441-0.583s-8.352-0.009-10.441 0.539c-0.563 0.16-1.075 0.462-1.487 0.878s-0.711 0.929-0.867 1.493c-0.551 2.088-0.556 6.419-0.556 6.419s-0.005 4.352 0.541 6.419c0.307 1.143 1.207 2.045 2.351 2.353 2.109 0.573 10.44 0.583 10.44 0.583s8.353 0.009 10.441-0.537c0.563-0.153 1.077-0.45 1.49-0.862s0.712-0.925 0.866-1.488c0.552-2.087 0.556-6.416 0.556-6.416s0.027-4.353-0.543-6.441zM13.328 20.007l0.007-8 6.943 4.007-6.949 3.993z"></path>
</symbol>
</defs>
</svg>
