<svg aria-hidden="true" style="position: absolute; width: 0; height: 0; overflow: hidden;" version="1.1" xmlns="http://www.w3.org/2000/svg" xmlns:xlink="http://www.w3.org/1999/xlink">
<defs>
<symbol id="icon-user_attributes" viewBox="0 0 32 32">
<path d="M18.869 8.579c-0.312 0-0.571-0.106-0.778-0.317s-0.31-0.473-0.31-0.783c0-0.31 0.103-0.57 0.31-0.779s0.466-0.313 0.778-0.313h9.6c0.31 0 0.57 0.106 0.78 0.317s0.315 0.474 0.315 0.786c0 0.311-0.105 0.57-0.315 0.777s-0.47 0.311-0.78 0.311h-9.6zM18.869 14c-0.312 0-0.571-0.106-0.778-0.317s-0.31-0.473-0.31-0.785c0-0.312 0.103-0.57 0.31-0.774s0.466-0.307 0.778-0.307h9.6c0.31 0 0.57 0.104 0.78 0.312s0.315 0.468 0.315 0.782c0 0.312-0.105 0.571-0.315 0.778s-0.47 0.311-0.78 0.311h-9.6zM18.869 19.421c-0.308 0-0.567-0.105-0.775-0.314s-0.313-0.468-0.313-0.778c0-0.309 0.104-0.567 0.313-0.774s0.467-0.31 0.775-0.31h9.6c0.31 0 0.57 0.105 0.78 0.314s0.315 0.468 0.315 0.778c0 0.309-0.105 0.567-0.315 0.774s-0.47 0.31-0.78 0.31h-9.6zM10.616 18.567c-1.185 0-2.165-0.39-2.942-1.171s-1.165-1.763-1.165-2.948c0-1.185 0.39-2.167 1.169-2.946s1.76-1.168 2.942-1.168c1.185 0 2.167 0.39 2.946 1.17s1.169 1.762 1.169 2.946c0 1.186-0.39 2.169-1.171 2.948s-1.763 1.169-2.948 1.169zM2.443 25.89v-1.24c0-0.45 0.108-0.878 0.323-1.284s0.503-0.696 0.864-0.867c1.011-0.722 2.118-1.258 3.322-1.607s2.426-0.525 3.665-0.525c1.239 0 2.455 0.192 3.649 0.575s2.31 0.902 3.348 1.557c0.339 0.238 0.622 0.543 0.848 0.915s0.34 0.784 0.34 1.237v1.24c0 0.326-0.109 0.598-0.328 0.816s-0.488 0.327-0.808 0.327h-14.088c-0.32 0-0.59-0.109-0.808-0.327s-0.327-0.49-0.327-0.816zM4.452 24.483v0.367h12.333v-0.367c-0.867-0.578-1.867-1.044-3-1.4s-2.189-0.533-3.167-0.533c-0.978 0-2.039 0.178-3.183 0.533s-2.139 0.822-2.983 1.4zM10.619 16.383c0.578 0 1.044-0.179 1.4-0.537s0.533-0.824 0.533-1.396c0-0.578-0.178-1.044-0.533-1.4s-0.822-0.533-1.4-0.533c-0.578 0-1.044 0.178-1.4 0.533s-0.533 0.822-0.533 1.4c0 0.572 0.178 1.038 0.533 1.396s0.822 0.537 1.4 0.537z"></path>
</symbol>
<symbol id="icon-pan_tool" viewBox="0 0 32 32">
<path d="M13.403 30.866c-0.613 0-1.2-0.143-1.76-0.429s-1.007-0.69-1.34-1.211l-8.068-12.069c-0.133-0.205-0.175-0.434-0.125-0.687s0.168-0.456 0.354-0.612c0.401-0.333 0.861-0.544 1.379-0.633s1.050 0.071 1.593 0.479l3.817 2.911v-13.727c0-0.303 0.105-0.559 0.315-0.767s0.467-0.313 0.772-0.313c0.305 0 0.56 0.104 0.765 0.313s0.307 0.464 0.307 0.767v15.536c0 0.481-0.209 0.822-0.626 1.024s-0.814 0.164-1.19-0.112l-3.833-2.804 6.331 9.479c0.151 0.229 0.337 0.402 0.557 0.519s0.469 0.176 0.748 0.176h9.728c0.824 0 1.517-0.281 2.078-0.842s0.842-1.254 0.842-2.078v-19.581c0-0.303 0.105-0.559 0.315-0.767s0.467-0.313 0.773-0.313c0.305 0 0.56 0.104 0.765 0.313s0.307 0.464 0.307 0.767v19.581c0 1.421-0.491 2.623-1.474 3.606s-2.185 1.474-3.606 1.474h-9.724zM15.944 1.094c0.305 0 0.561 0.104 0.767 0.312s0.309 0.464 0.309 0.767v12.826c0 0.303-0.105 0.559-0.315 0.767s-0.467 0.312-0.773 0.312c-0.305 0-0.559-0.104-0.761-0.312s-0.303-0.464-0.303-0.767v-12.826c0-0.303 0.103-0.559 0.309-0.767s0.462-0.312 0.767-0.312zM21.56 2.459c0.302 0 0.556 0.104 0.76 0.313s0.306 0.464 0.306 0.767v11.461c0 0.303-0.104 0.559-0.313 0.767s-0.465 0.312-0.768 0.312c-0.304 0-0.558-0.104-0.763-0.312s-0.307-0.464-0.307-0.767v-11.461c0-0.303 0.105-0.559 0.314-0.767s0.467-0.313 0.772-0.313z"></path>
</symbol>
<symbol id="icon-nights_stay" viewBox="0 0 32 32">
<path d="M17.467 30.786h-3.93l0.376-0.357c0.251-0.238 0.527-0.495 0.828-0.771s0.577-0.533 0.827-0.771l0.376-0.357h1.367c2.145 0.021 4.14-0.59 5.985-1.834s3.303-2.792 4.375-4.644c-1.968-0.199-3.861-0.672-5.679-1.419s-3.422-1.813-4.812-3.197c-1.395-1.379-2.461-2.97-3.197-4.774s-1.206-3.679-1.411-5.625c-1.849 1.056-3.375 2.46-4.577 4.211s-1.814 3.69-1.836 5.816v0.383c0 0.141 0.011 0.266 0.033 0.376l-0.345 0.132c-0.23 0.088-0.486 0.179-0.766 0.275s-0.536 0.187-0.766 0.275l-0.345 0.132c-0.038-0.278-0.062-0.532-0.073-0.762s-0.017-0.454-0.017-0.674c0-3.061 0.892-5.758 2.675-8.091s4.111-3.944 6.983-4.831c0.199-0.050 0.386-0.062 0.56-0.037s0.325 0.097 0.452 0.216 0.235 0.26 0.323 0.421c0.088 0.162 0.124 0.346 0.107 0.553-0.112 1.985 0.139 3.862 0.753 5.632s1.632 3.363 3.055 4.781c1.469 1.473 3.059 2.496 4.769 3.068s3.585 0.819 5.626 0.74c0.2-0.012 0.385 0.031 0.553 0.128s0.313 0.21 0.435 0.34 0.188 0.286 0.199 0.469c0.011 0.182-0.019 0.376-0.091 0.58-0.995 2.917-2.574 5.249-4.739 6.996s-4.855 2.621-8.072 2.621zM8 28.507h6c0.703 0 1.301-0.243 1.793-0.73s0.738-1.082 0.738-1.785-0.241-1.303-0.722-1.797c-0.482-0.494-1.065-0.742-1.75-0.742h-1.386l-0.533-1.254c-0.361-0.833-0.913-1.498-1.658-1.994s-1.561-0.747-2.449-0.752c-1.246 0-2.318 0.444-3.216 1.332s-1.347 1.953-1.347 3.197c0 1.261 0.44 2.33 1.321 3.209s1.951 1.317 3.21 1.317zM8 30.786c-1.879 0-3.483-0.664-4.811-1.991s-1.992-2.932-1.992-4.814 0.664-3.488 1.992-4.816c1.328-1.328 2.931-1.992 4.811-1.992 1.345 0 2.576 0.362 3.691 1.087s1.947 1.698 2.497 2.921c1.283 0.066 2.372 0.559 3.269 1.481s1.345 2.029 1.345 3.321c0 1.324-0.47 2.455-1.409 3.394s-2.070 1.409-3.394 1.409h-6z"></path>
</symbol>
<symbol id="icon-pattern" viewBox="0 0 32 32">
<path d="M7.446 26.85c-0.635 0-1.176-0.223-1.624-0.67s-0.672-0.985-0.672-1.616c0-0.633 0.224-1.174 0.672-1.623s0.989-0.674 1.624-0.674c0.123 0 0.241 0.008 0.353 0.025s0.229 0.047 0.352 0.091l5.678-5.678c-0.149-0.399-0.17-0.811-0.063-1.235s0.311-0.79 0.611-1.097c0.3-0.307 0.664-0.512 1.091-0.615s0.839-0.079 1.238 0.070l5.644-5.644c-0.022-0.128-0.042-0.252-0.058-0.374s-0.025-0.244-0.025-0.365c0-0.635 0.223-1.176 0.668-1.624s0.985-0.672 1.618-0.672c0.633 0 1.174 0.223 1.623 0.67s0.674 0.985 0.674 1.616c0 0.633-0.224 1.174-0.672 1.623s-0.989 0.674-1.624 0.674c-0.182 0-0.439-0.028-0.772-0.083l-5.611 5.611c0.127 0.421 0.145 0.845 0.053 1.272s-0.29 0.793-0.597 1.099c-0.32 0.326-0.694 0.529-1.12 0.609s-0.862 0.057-1.305-0.070l-5.383 5.383h4.108c0.184-0.399 0.463-0.713 0.836-0.943s0.779-0.345 1.215-0.345c0.457 0 0.872 0.115 1.246 0.345s0.654 0.544 0.841 0.943h4.425c0.212-0.402 0.501-0.717 0.865-0.945s0.764-0.343 1.197-0.343c0.635 0 1.176 0.223 1.624 0.668s0.672 0.985 0.672 1.618c0 0.633-0.224 1.174-0.672 1.623s-0.989 0.674-1.624 0.674c-0.444 0-0.853-0.115-1.226-0.344s-0.652-0.547-0.836-0.952h-4.418c-0.191 0.399-0.474 0.715-0.849 0.947s-0.783 0.349-1.225 0.349c-0.444 0-0.854-0.115-1.23-0.344s-0.656-0.547-0.841-0.952h-4.414c-0.188 0.404-0.469 0.721-0.843 0.951s-0.783 0.345-1.228 0.345zM7.447 18.288c-0.631 0-1.171-0.222-1.622-0.667s-0.676-0.982-0.676-1.614c0-0.632 0.223-1.172 0.669-1.621s0.984-0.674 1.614-0.674 1.171 0.223 1.622 0.668c0.452 0.445 0.678 0.983 0.678 1.614s-0.224 1.171-0.672 1.62c-0.448 0.449-0.986 0.674-1.614 0.674zM7.444 9.733c-0.63 0-1.17-0.223-1.619-0.668s-0.675-0.985-0.675-1.618c0-0.633 0.223-1.174 0.67-1.623s0.985-0.674 1.616-0.674c0.633 0 1.174 0.223 1.623 0.669s0.674 0.984 0.674 1.614c0 0.63-0.224 1.171-0.672 1.623s-0.987 0.678-1.617 0.678zM16.006 9.733c-0.631 0-1.171-0.224-1.62-0.672s-0.674-0.986-0.674-1.614c0-0.631 0.222-1.171 0.667-1.622s0.982-0.676 1.614-0.676c0.632 0 1.172 0.223 1.621 0.669s0.674 0.984 0.674 1.614-0.223 1.171-0.668 1.622c-0.445 0.452-0.983 0.678-1.614 0.678zM24.567 18.288c-0.63 0-1.171-0.223-1.622-0.668s-0.678-0.983-0.678-1.614 0.224-1.171 0.672-1.62c0.448-0.449 0.986-0.674 1.614-0.674 0.631 0 1.171 0.222 1.622 0.667s0.676 0.982 0.676 1.614c0 0.632-0.223 1.172-0.669 1.621s-0.984 0.674-1.614 0.674z"></path>
</symbol>
</defs>
</svg>
